<?xml version="1.0" encoding="UTF-8"?>
<svg width="60px" height="108px" viewBox="0 0 60 108" version="1.1" xmlns="http://www.w3.org/2000/svg" xmlns:xlink="http://www.w3.org/1999/xlink">
    <title>symble-Color</title>
    <g id="定稿" stroke="none" stroke-width="1" fill="none" fill-rule="evenodd">
        <g id="Sender-svg" transform="translate(-924.000000, -240.000000)" fill="#2E79DF">
            <g id="1" transform="translate(240.000000, 240.000000)">
                <path d="M731.030358,44.7388566 C732.635586,45.3251687 734.109757,46.091225 735.41929,47.0327914 C737.161902,48.2855715 738.612713,49.8504902 739.688121,51.720433 C740.241158,52.6820654 740.675161,53.6889918 740.99372,54.7317766 C741.315894,55.7822725 741.522009,56.8689832 741.616271,57.9821168 C742.282833,65.8085593 737.453761,74.9096997 728.859932,81.6705677 L728.471956,81.9722564 C726.977363,83.1204604 725.372095,84.1987928 723.665529,85.1879265 L684.307532,108 C683.15258,100.329149 685.283073,92.4505304 690.153902,86.3765836 C692.259598,83.7497243 694.877695,81.4608337 697.964392,79.6717703 L720.955703,66.345902 C724.089121,64.5297585 726.081012,61.4940724 726.67294,58.1919345 C727.144026,55.5661934 726.730102,52.7726869 725.301512,50.2886231 C724.152788,48.2911981 722.503123,46.7639035 720.600481,45.7730364 C718.437905,44.6451761 715.947781,44.2105553 713.495722,44.5661608 C713.634239,44.500585 713.773199,44.4372041 713.912602,44.3760182 C715.999127,43.8580037 718.060524,43.5286154 720.061104,43.3856575 C724.054093,43.1012096 727.805214,43.5592194 731.030358,44.7388566 Z M743.692468,0 C744.84742,7.67085123 742.716927,15.5494696 737.846098,21.6234164 C735.740402,24.2502757 733.122305,26.5391663 730.035608,28.3282297 L707.044297,41.654098 C703.910879,43.4702415 701.918988,46.5059276 701.32706,49.8080655 C700.855974,52.4338066 701.269898,55.2273131 702.698488,57.7113769 C703.847212,59.7088019 705.496877,61.2360965 707.399519,62.2269636 C709.562095,63.3548239 712.052219,63.7894447 714.504278,63.4338392 C714.365761,63.499415 714.226801,63.5627959 714.087398,63.6239818 C712.000873,64.1419963 709.939476,64.4713846 707.938896,64.6143425 C703.945907,64.8987904 700.194786,64.4407806 696.969642,63.2611434 C695.364414,62.6748313 693.890243,61.908775 692.58071,60.9672086 C690.838098,59.7144285 689.387287,58.1495098 688.311879,56.279567 C687.758842,55.3179346 687.324839,54.3110082 687.00628,53.2682234 C686.684106,52.2177275 686.477991,51.1310168 686.383729,50.0178832 C685.717167,42.1914407 690.546239,33.0903003 699.140068,26.3294323 L699.528044,26.0277436 C701.022637,24.8795396 702.627905,23.8012072 704.334471,22.8120735 L743.692468,0 Z" id="symble-Color"></path>
            </g>
        </g>
    </g>
</svg>